<svg width="430" height="430" viewBox="0 0 430 430" fill="none" xmlns="http://www.w3.org/2000/svg">
<path d="M121.23 99.29H87.58C85.647 99.29 84.08 100.857 84.08 102.79V129.44C84.08 131.373 85.647 132.94 87.58 132.94H121.23C123.163 132.94 124.73 131.373 124.73 129.44V102.79C124.73 100.857 123.163 99.29 121.23 99.29Z" fill="#FFC738"/>
<g style="mix-blend-mode:multiply" opacity="0.5">
<path d="M104.4 99.29H87.58C86.6517 99.29 85.7615 99.6588 85.1051 100.315C84.4487 100.972 84.08 101.862 84.08 102.79V129.44C84.08 130.368 84.4487 131.259 85.1051 131.915C85.7615 132.571 86.6517 132.94 87.58 132.94H104.4V99.29Z" fill="#FFC738"/>
</g>
<path d="M278.074 126.122L278.198 126.44H278.54H376.07C376.866 126.44 377.629 126.756 378.191 127.319C378.754 127.881 379.07 128.644 379.07 129.44V341.58C379.07 342.376 378.754 343.139 378.191 343.701C377.629 344.264 376.866 344.58 376.07 344.58H53.9299C53.1343 344.58 52.3712 344.264 51.8086 343.701C51.246 343.139 50.9299 342.376 50.9299 341.58V129.44C50.9299 128.644 51.246 127.881 51.8086 127.319C52.3712 126.756 53.1343 126.44 53.9299 126.44H151.47H151.812L151.936 126.122L167.466 86.3317L167.466 86.3304C167.683 85.7699 168.064 85.2877 168.559 84.9469C169.054 84.6063 169.64 84.4226 170.241 84.4199L259.74 84.4199L259.741 84.4199C260.345 84.419 260.935 84.601 261.433 84.9421C261.932 85.2831 262.316 85.7671 262.534 86.3304L262.534 86.3318L278.074 126.122Z" fill="#3A3347" stroke="#3A3347"/>
<path d="M351 163.26C351 166.504 350.038 169.675 348.235 172.372C346.433 175.069 343.871 177.171 340.874 178.412C337.876 179.653 334.578 179.978 331.397 179.344C328.215 178.71 325.293 177.147 323 174.853C320.707 172.558 319.146 169.635 318.514 166.453C317.882 163.271 318.208 159.973 319.451 156.977C320.694 153.98 322.798 151.42 325.496 149.619C328.194 147.818 331.366 146.858 334.61 146.86C336.763 146.86 338.895 147.284 340.884 148.108C342.874 148.933 344.681 150.141 346.203 151.664C347.725 153.187 348.932 154.995 349.755 156.985C350.578 158.974 351.001 161.107 351 163.26V163.26Z" stroke="#08A88A" stroke-width="7" stroke-linecap="round" stroke-linejoin="round"/>
<path d="M200.174 85.9453L200.169 85.9567L200.164 85.9683L184.778 125.44H152.202L167.466 86.3317L167.466 86.3304C167.684 85.7685 168.066 85.2854 168.563 84.9445C169.06 84.6036 169.648 84.4208 170.25 84.4199H200.858L200.174 85.9453Z" fill="#3A3347" stroke="#3A3347"/>
<path d="M53.9299 126.44H83.5799V129.44V344.58H53.9299C53.1343 344.58 52.3712 344.264 51.8086 343.701C51.246 343.139 50.9299 342.376 50.9299 341.58V129.44C50.9299 128.644 51.246 127.881 51.8086 127.319C52.3712 126.756 53.1343 126.44 53.9299 126.44Z" fill="#3A3347" stroke="#3A3347"/>
<g style="mix-blend-mode:multiply" opacity="0.5">
<path d="M153.646 177.767C167.314 168.634 183.382 163.76 199.82 163.76C221.855 163.781 242.983 172.544 258.564 188.126C274.146 203.707 282.909 224.835 282.93 246.87C282.93 263.308 278.055 279.376 268.923 293.043C259.791 306.711 246.811 317.363 231.625 323.654C216.438 329.944 199.728 331.59 183.606 328.383C167.484 325.176 152.675 317.261 141.052 305.638C129.429 294.015 121.514 279.206 118.307 263.084C115.1 246.962 116.746 230.252 123.036 215.065C129.327 199.879 139.979 186.899 153.646 177.767Z" fill="#3A3347"/>
<path d="M153.646 177.767C167.314 168.634 183.382 163.76 199.82 163.76C221.855 163.781 242.983 172.544 258.564 188.126C274.146 203.707 282.909 224.835 282.93 246.87C282.93 263.308 278.055 279.376 268.923 293.043C259.791 306.711 246.811 317.363 231.625 323.654C216.438 329.944 199.728 331.59 183.606 328.383C167.484 325.176 152.675 317.261 141.052 305.638C129.429 294.015 121.514 279.206 118.307 263.084C115.1 246.962 116.746 230.252 123.036 215.065C129.327 199.879 139.979 186.899 153.646 177.767Z" stroke="#3A3347"/>
</g>
<path opacity="0.34" d="M215 151.9C192.825 151.9 171.559 160.709 155.879 176.389C140.199 192.069 131.39 213.335 131.39 235.51C131.39 257.685 140.199 278.951 155.879 294.631C171.559 310.311 192.825 319.12 215 319.12V151.9Z" fill="#646E78"/>
<path d="M215 151.9C198.463 151.9 182.297 156.804 168.548 165.991C154.798 175.179 144.081 188.238 137.753 203.516C131.425 218.794 129.77 235.606 132.997 251.825C136.224 268.044 144.188 282.942 155.882 294.635C167.576 306.327 182.475 314.29 198.695 317.515C214.914 320.74 231.725 319.082 247.003 312.753C262.281 306.423 275.338 295.705 284.524 281.954C293.71 268.203 298.612 252.037 298.61 235.5C298.581 213.335 289.762 192.086 274.088 176.414C258.414 160.742 237.165 151.926 215 151.9Z" fill="#646E78"/>
<path d="M215 177.5C203.529 177.5 192.315 180.902 182.777 187.275C173.239 193.648 165.805 202.706 161.415 213.304C157.025 223.902 155.876 235.564 158.114 246.815C160.352 258.066 165.876 268.401 173.988 276.512C182.099 284.624 192.434 290.148 203.685 292.386C214.936 294.624 226.597 293.475 237.196 289.085C247.794 284.695 256.852 277.261 263.225 267.723C269.598 258.185 273 246.971 273 235.5C272.984 220.122 266.868 205.379 255.995 194.505C245.121 183.632 230.378 177.516 215 177.5Z" fill="#EBE6EF"/>
<g style="mix-blend-mode:multiply" opacity="0.5">
<path d="M233.72 282.5C221.263 282.505 209.17 278.299 199.405 270.564C189.64 262.829 182.776 252.02 179.929 239.893C177.082 227.766 178.419 215.032 183.721 203.76C189.024 192.487 197.982 183.339 209.14 177.8C200.028 178.702 191.259 181.748 183.55 186.689C175.841 191.631 169.412 198.327 164.788 206.231C160.165 214.134 157.478 223.02 156.948 232.161C156.418 241.303 158.06 250.439 161.739 258.824C165.418 267.209 171.031 274.604 178.117 280.403C185.203 286.202 193.561 290.241 202.508 292.19C211.455 294.138 220.736 293.941 229.592 291.614C238.448 289.286 246.627 284.895 253.46 278.8C247.162 281.232 240.471 282.486 233.72 282.5Z" fill="#EBE6EF"/>
</g>
</svg>
