<?xml version="1.0" encoding="iso-8859-1"?>
<!-- Generator: Adobe Illustrator 21.0.0, SVG Export Plug-In . SVG Version: 6.00 Build 0)  -->
<svg version="1.1" id="Photography-camera-digital" xmlns="http://www.w3.org/2000/svg" xmlns:xlink="http://www.w3.org/1999/xlink"
	 x="0px" y="0px" viewBox="0 0 64.042 64" style="enable-background:new 0 0 64.042 64;" xml:space="preserve">
<path d="M32,30c-8.271,0-15,6.729-15,15s6.729,15,15,15s15-6.729,15-15S40.271,30,32,30z M32,58c-7.168,0-13-5.832-13-13
	s5.832-13,13-13s13,5.832,13,13S39.168,58,32,58z"/>
<path d="M32,34c-6.065,0-11,4.935-11,11s4.935,11,11,11s11-4.935,11-11S38.065,34,32,34z M32,54c-4.963,0-9-4.038-9-9s4.037-9,9-9
	s9,4.038,9,9S36.963,54,32,54z"/>
<path d="M63,20H51c-0.553,0-1,0.448-1,1v3h-5.59l-3.703-5.555C40.521,18.167,40.209,18,39.875,18h-16
	c-0.334,0-0.646,0.167-0.832,0.445L19.34,24H14v-3c0-0.552-0.447-1-1-1H1c-0.553,0-1,0.448-1,1v12v30c0,0.552,0.447,1,1,1h12h50
	c0.553,0,1-0.448,1-1V25v-4C64,20.448,63.553,20,63,20z M52,22h10v2H52V22z M12,55H2v-2h10V55z M12,51H2v-2h10V51z M12,47H2v-2h10
	V47z M12,43H2v-2h10V43z M12,39H2v-2h10V39z M2,57h10v2H2V57z M12,35H2v-1h10V35z M2,62v-1h10v1H2z M62,62H14V33
	c0-0.552-0.447-1-1-1H2V22h10v3c0,0.552,0.447,1,1,1h6.875c0.334,0,0.646-0.167,0.832-0.445L24.41,20h14.93l3.703,5.555
	C43.229,25.833,43.541,26,43.875,26H51h11V62z"/>
<path d="M50.846,8.48c2.641,0.528,4.688,2.575,5.216,5.216c0.094,0.467,0.504,0.804,0.98,0.804s0.887-0.336,0.98-0.804
	c0.528-2.641,2.575-4.688,5.216-5.216c0.467-0.093,0.804-0.504,0.804-0.98s-0.337-0.887-0.804-0.98
	c-2.641-0.528-4.688-2.575-5.216-5.216C57.929,0.836,57.519,0.5,57.042,0.5s-0.887,0.336-0.98,0.804
	c-0.528,2.641-2.575,4.688-5.216,5.216c-0.467,0.093-0.804,0.504-0.804,0.98S50.379,8.387,50.846,8.48z M57.042,4.313
	c0.761,1.326,1.86,2.426,3.187,3.187c-1.326,0.761-2.426,1.86-3.187,3.187c-0.761-1.326-1.86-2.426-3.187-3.187
	C55.182,6.739,56.281,5.64,57.042,4.313z"/>
<path d="M39.846,14.48c2.641,0.528,4.688,2.575,5.216,5.216c0.094,0.467,0.504,0.804,0.98,0.804s0.887-0.336,0.98-0.804
	c0.528-2.641,2.575-4.688,5.216-5.216c0.467-0.093,0.804-0.504,0.804-0.98s-0.337-0.887-0.804-0.98
	c-2.641-0.528-4.688-2.575-5.216-5.216C46.929,6.836,46.519,6.5,46.042,6.5s-0.887,0.336-0.98,0.804
	c-0.528,2.641-2.575,4.688-5.216,5.216c-0.467,0.093-0.804,0.504-0.804,0.98S39.379,14.387,39.846,14.48z M46.042,10.313
	c0.761,1.326,1.86,2.426,3.187,3.187c-1.326,0.761-2.426,1.86-3.187,3.187c-0.761-1.326-1.86-2.426-3.187-3.187
	C44.182,12.739,45.281,11.64,46.042,10.313z"/>
<rect width="2" height="2"/>
<rect x="4" width="2" height="2"/>
<rect x="8" width="2" height="2"/>
<rect y="4" width="2" height="2"/>
<rect x="4" y="4" width="2" height="2"/>
<rect y="8" width="2" height="2"/>
<rect x="4" y="8" width="2" height="2"/>
<rect x="8" y="4" width="2" height="2"/>
<rect x="51" y="59" width="2" height="2"/>
<rect x="55" y="59" width="2" height="2"/>
<rect x="59" y="59" width="2" height="2"/>
<rect x="51" y="55" width="2" height="2"/>
<rect x="55" y="55" width="2" height="2"/>
<rect x="59" y="55" width="2" height="2"/>
<rect x="51" y="51" width="2" height="2"/>
<rect x="55" y="51" width="2" height="2"/>
<rect x="59" y="51" width="2" height="2"/>
<rect x="51" y="47" width="2" height="2"/>
<rect x="55" y="47" width="2" height="2"/>
<rect x="59" y="47" width="2" height="2"/>
<rect x="51" y="43" width="2" height="2"/>
<rect x="55" y="43" width="2" height="2"/>
<rect x="59" y="43" width="2" height="2"/>
<rect x="51" y="39" width="2" height="2"/>
<rect x="55" y="39" width="2" height="2"/>
<rect x="59" y="39" width="2" height="2"/>
<path d="M49,28v4c0,0.552,0.447,1,1,1h10c0.553,0,1-0.448,1-1v-4c0-0.552-0.447-1-1-1H50C49.447,27,49,27.448,49,28z M51,29h8v2h-8
	V29z"/>
</svg>
