<?xml version="1.0" encoding="UTF-8" standalone="no"?> <svg viewBox="0 0 48 48" fill="none" xmlns="http://www.w3.org/2000/svg">
<path d="M43.6209 18.9C43.0417 18.3223 42.257 17.9979 41.4389 17.9979C40.6209 17.9979 39.8362 18.3223 39.2569 18.9L24.5059 33.655C22.8429 35.318 22.0899 40.296 22.0059 40.855C21.9851 40.9975 21.9952 41.1427 22.0356 41.2809C22.076 41.4191 22.1458 41.5469 22.2402 41.6556C22.3346 41.7643 22.4513 41.8513 22.5824 41.9108C22.7136 41.9702 22.856 42.0007 22.9999 42C23.0471 42.0002 23.0942 41.9968 23.1409 41.99C23.7039 41.91 28.6819 41.157 30.3409 39.49L45.0999 24.743C45.6776 24.1638 46.002 23.3791 46.002 22.561C46.002 21.7429 45.6776 20.9583 45.0999 20.379L43.6209 18.9ZM24.9549 36.994L27.0099 39.049C26.0983 39.3455 25.1696 39.5869 24.2289 39.772C24.4146 38.8322 24.6571 37.9045 24.9549 36.994V36.994ZM43.6819 23.329L28.9309 38.08C28.927 38.0842 28.9222 38.0876 28.9168 38.0898C28.9115 38.0921 28.9057 38.0932 28.8999 38.093C28.8943 38.0931 28.8887 38.092 28.8835 38.0897C28.8784 38.0875 28.8737 38.0842 28.8699 38.08L25.9199 35.13C25.9159 35.126 25.9127 35.1213 25.9105 35.116C25.9084 35.1108 25.9072 35.1052 25.9072 35.0995C25.9072 35.0938 25.9084 35.0882 25.9105 35.083C25.9127 35.0778 25.9159 35.073 25.9199 35.069L40.6709 20.318C40.875 20.115 41.1511 20.0011 41.4389 20.0011C41.7268 20.0011 42.0029 20.115 42.2069 20.318L43.6819 21.793C43.8852 21.9969 43.9993 22.2731 43.9993 22.561C43.9993 22.8489 43.8852 23.1251 43.6819 23.329Z" />
<path d="M41 6H7C5.6744 6.00159 4.40356 6.52888 3.46622 7.46622C2.52888 8.40356 2.00159 9.6744 2 11V35C2.00159 36.3256 2.52888 37.5964 3.46622 38.5338C4.40356 39.4711 5.6744 39.9984 7 40H19C19.2652 40 19.5196 39.8946 19.7071 39.7071C19.8946 39.5196 20 39.2652 20 39C20 38.7348 19.8946 38.4804 19.7071 38.2929C19.5196 38.1054 19.2652 38 19 38H18V33H21C21.2652 33 21.5196 32.8946 21.7071 32.7071C21.8946 32.5196 22 32.2652 22 32C22 31.7348 21.8946 31.4804 21.7071 31.2929C21.5196 31.1054 21.2652 31 21 31H4V15H44V16C44 16.2652 44.1054 16.5196 44.2929 16.7071C44.4804 16.8946 44.7348 17 45 17C45.2652 17 45.5196 16.8946 45.7071 16.7071C45.8946 16.5196 46 16.2652 46 16V11C45.9984 9.6744 45.4711 8.40356 44.5338 7.46622C43.5964 6.52888 42.3256 6.00159 41 6V6ZM16 33V38H11V33H16ZM9 33V38H7C6.20435 38 5.44129 37.6839 4.87868 37.1213C4.31607 36.5587 4 35.7956 4 35V33H9ZM4 13V11C4 10.2044 4.31607 9.44129 4.87868 8.87868C5.44129 8.31607 6.20435 8 7 8H9V13H4ZM11 13V8H16V13H11ZM18 13V8H23V13H18ZM25 13V8H30V13H25ZM32 13V8H37V13H32ZM39 13V8H41C41.7956 8 42.5587 8.31607 43.1213 8.87868C43.6839 9.44129 44 10.2044 44 11V13H39Z" />
</svg>
