<svg width="181" height="546" viewBox="0 0 181 546" fill="none" xmlns="http://www.w3.org/2000/svg">
<path fill-rule="evenodd" clip-rule="evenodd" d="M-23.9466 461.982C-70.7121 467.491 -100.757 564.017 -144.239 543.015C-184.558 523.541 -158.956 444.527 -165.208 393.754C-169.201 361.327 -172.207 330.404 -174.442 297.744C-176.883 262.079 -186.946 226.901 -178.992 192.367C-169.903 152.907 -150.49 118.342 -126.35 88.9481C-96.7732 52.9348 -62.9259 -16.5125 -23.9466 3.5786C24.6709 28.6374 -3.54388 133.075 37.1305 173.21C67.1516 202.834 123.605 146.735 152.581 177.766C178.148 205.146 149.492 257.32 153.415 297.745C157.988 344.857 191.768 390.318 177.516 434.669C163.475 478.362 122.629 510.88 83.206 516.225C43.9119 521.552 15.4106 457.346 -23.9466 461.982Z" fill="#F74807"/>
</svg>
