<svg width="197" height="546" viewBox="0 0 197 546" fill="none" xmlns="http://www.w3.org/2000/svg">
<path fill-rule="evenodd" clip-rule="evenodd" d="M204.947 84.0177C251.712 78.5092 281.757 -18.0168 325.239 2.98448C365.558 22.4586 339.956 101.473 346.208 152.246C350.201 184.673 353.207 215.596 355.442 248.255C357.883 283.921 367.946 319.099 359.992 353.633C350.903 393.093 331.49 427.658 307.35 457.052C277.773 493.065 243.926 562.512 204.947 542.421C156.329 517.363 184.544 412.925 143.87 372.79C113.848 343.166 57.3947 399.265 28.4186 368.234C2.85241 340.854 31.5082 288.68 27.5848 248.255C23.0122 201.143 -10.7682 155.682 3.48431 111.331C17.5252 67.6377 58.3715 35.1199 97.7941 29.7752C137.088 24.448 165.589 88.6536 204.947 84.0177Z" fill="#F74807"/>
</svg>
