<svg viewBox="0 0 63 60" fill="none" xmlns="http://www.w3.org/2000/svg">
<path d="M26.9866 37.8333C25.4089 37.2267 24.1133 36.2222 23.1 34.82C22.0867 33.4178 21.5789 31.8111 21.5766 30C21.5766 27.6756 22.3844 25.7056 24 24.09C25.6155 22.4744 27.5855 21.6667 29.91 21.6667C32.1589 21.6667 34.0778 22.4322 35.6666 23.9633C37.2555 25.4944 38.1144 27.3567 38.2433 29.55H37.4366C36.9544 29.5944 36.5133 29.6467 36.1133 29.7067C35.7133 29.7689 35.3055 29.8622 34.89 29.9867V29.8533C34.8478 28.5067 34.3444 27.3611 33.38 26.4167C32.4133 25.4722 31.2466 25 29.88 25C28.5111 25 27.34 25.4867 26.3666 26.46C25.3933 27.4333 24.9078 28.6067 24.91 29.98C24.91 31.1356 25.2355 32.1389 25.8867 32.99C26.5378 33.8433 27.3555 34.43 28.34 34.75C28.0155 35.2233 27.7444 35.71 27.5266 36.21C27.3089 36.71 27.1289 37.2511 26.9866 37.8333ZM23.78 60L22.5766 50.36C21.5122 50.0378 20.3622 49.5333 19.1266 48.8467C17.8889 48.1578 16.8355 47.42 15.9667 46.6333L7.07665 50.4167L0.859985 39.5833L8.54665 33.7867C8.44665 33.1867 8.36554 32.5667 8.30332 31.9267C8.23665 31.2867 8.20332 30.6756 8.20332 30.0933C8.20332 29.5156 8.23665 28.9167 8.30332 28.2967C8.36554 27.6789 8.44665 26.9833 8.54665 26.21L0.859985 20.42L7.07665 9.71333L15.9033 13.4333C16.8989 12.6044 17.9767 11.8567 19.1367 11.19C20.2922 10.5233 21.4178 10.0078 22.5133 9.64333L23.78 0H36.22L37.4233 9.70667C38.7011 10.1556 39.83 10.67 40.81 11.25C41.79 11.83 42.8 12.5567 43.84 13.43L52.9233 9.71333L59.14 20.4167L51.2 26.4033C51.3822 27.0922 51.4844 27.7244 51.5066 28.3C51.5289 28.8756 51.54 29.4422 51.54 30H48.0766C48.0633 29.0311 48.0011 28.1756 47.89 27.4333C47.7789 26.6911 47.6122 25.9167 47.39 25.11L54.8133 19.5L51.5 13.8333L42.9933 17.4C41.9844 16.2911 40.6589 15.2522 39.0167 14.2833C37.3722 13.3167 35.8167 12.6756 34.35 12.36L33.3333 3.33333H26.6866L25.6467 12.2967C23.9667 12.6544 22.4222 13.2322 21.0133 14.03C19.6066 14.8256 18.2066 15.92 16.8133 17.3133L8.49999 13.8333L5.18665 19.5L12.4167 24.9C12.1389 25.6467 11.9444 26.4578 11.8333 27.3333C11.7222 28.2089 11.6667 29.1133 11.6667 30.0467C11.6667 30.9244 11.7222 31.7756 11.8333 32.6C11.9444 33.4222 12.1178 34.2289 12.3533 35.02L5.18665 40.5L8.49999 46.1667L16.75 42.6667C18.0833 44.0133 19.5944 45.1267 21.2833 46.0067C22.9722 46.8867 24.7666 47.53 26.6667 47.9367V60H23.78ZM37.3066 60C36.4533 60 35.7267 59.7 35.1267 59.1C34.5266 58.5 34.2278 57.7744 34.23 56.9233V40.8333C34.23 40.0467 34.4589 39.3822 34.9167 38.84C35.3744 38.2978 35.9344 37.9756 36.5966 37.8733L38.4633 41.6667H42.6933L40.5767 37.4333H44.81L46.9233 41.6667H51.1567L49.0367 37.4333H53.27L55.3833 41.6667H59.6166L57.5 37.4333H59.36C60.2133 37.4333 60.9389 37.7333 61.5366 38.3333C62.1344 38.9333 62.4344 39.66 62.4366 40.5133V56.9233C62.4366 57.7789 62.1367 58.5056 61.5366 59.1033C60.9366 59.7011 60.2111 60 59.36 60H37.3066ZM37.18 57.05H59.4867V44.6167H37.18V57.05Z" />
</svg>
