<svg width="2382" height="1783" viewBox="0 0 2382 1783" fill="none" xmlns="http://www.w3.org/2000/svg">
<path fill-rule="evenodd" clip-rule="evenodd" d="M1991.1 370.782C2131.28 549.944 2364.64 693.632 2380.8 916.97C2397.02 1141.05 2237.11 1341.73 2071.3 1478.87C1927.21 1598.04 1711.56 1556.62 1533.98 1617.35C1409.18 1660.04 1316.88 1783.18 1183.05 1782.68C1050.72 1782.18 951.647 1637.59 820.008 1614.65C608.672 1577.84 351.622 1764.33 193.439 1610.28C50.1622 1470.74 253.216 1229.08 223.058 1033.29C190.597 822.543 -56.5536 631.231 12.5257 435.733C79.9906 244.802 337.846 214.292 530.785 162.398C686.397 120.544 855.707 206.507 1012 166.91C1220.59 114.061 1365.33 -36.4076 1581 8.49999C1783.18 50.5995 1860.09 203.333 1991.1 370.782Z" fill="#14212A"/>
<path fill-rule="evenodd" clip-rule="evenodd" d="M1991.1 370.782C2131.28 549.944 2364.64 693.632 2380.8 916.97C2397.02 1141.05 2237.11 1341.73 2071.3 1478.87C1927.21 1598.04 1711.56 1556.62 1533.98 1617.35C1409.18 1660.04 1316.88 1783.18 1183.05 1782.68C1050.72 1782.18 951.647 1637.59 820.008 1614.65C608.672 1577.84 351.622 1764.33 193.439 1610.28C50.1622 1470.74 253.216 1229.08 223.058 1033.29C190.597 822.543 -56.5536 631.231 12.5257 435.733C79.9906 244.802 337.846 214.292 530.785 162.398C686.397 120.544 855.707 206.507 1012 166.91C1220.59 114.061 1365.33 -36.4076 1581 8.49999C1783.18 50.5995 1860.09 203.333 1991.1 370.782Z" fill="#14212A"/>
</svg>
