<?xml version="1.0" standalone="no"?>
<!DOCTYPE svg PUBLIC "-//W3C//DTD SVG 20010904//EN"
 "http://www.w3.org/TR/2001/REC-SVG-20010904/DTD/svg10.dtd">
<svg version="1.0" xmlns="http://www.w3.org/2000/svg"
  viewBox="0 0 5055.000000 5168.000000"
 preserveAspectRatio="xMidYMid meet">

<g transform="translate(0.000000,5168.000000) scale(0.100000,-0.100000)"
>
<path d="M26380 36909 c0 -7 19 -8 58 -3 77 9 78 14 4 14 -38 0 -62 -4 -62
-11z"/>
<path d="M26510 36720 l-35 -7 38 -2 c20 0 37 4 37 9 0 6 -1 9 -2 9 -2 -1 -19
-5 -38 -9z"/>
<path d="M46640 33676 c0 -84 -74 -242 -144 -305 -14 -14 -26 -35 -26 -48 0
-20 5 -23 40 -23 36 0 40 -2 40 -25 0 -22 4 -25 40 -25 33 0 40 -3 40 -20 0
-30 28 -24 34 8 3 15 15 94 27 177 19 134 29 178 54 238 5 12 3 17 -9 17 -9 0
-16 5 -16 10 0 6 -13 10 -30 10 -16 0 -30 5 -30 10 0 6 -4 10 -10 10 -5 0 -10
-15 -10 -34z"/>
<path d="M46341 33593 c0 -86 12 -76 27 23 8 49 7 54 -10 54 -16 0 -18 -9 -17
-77z"/>
<path d="M46966 33473 c-14 -75 -47 -315 -43 -319 2 -2 15 6 29 18 14 13 41
35 60 50 29 22 118 167 118 192 0 3 -9 6 -20 6 -13 0 -20 7 -20 20 0 13 -7 20
-20 20 -13 0 -20 7 -20 20 0 17 -7 20 -39 20 -35 0 -40 -3 -45 -27z"/>
<path d="M47018 33133 c6 -2 18 -2 25 0 6 3 1 5 -13 5 -14 0 -19 -2 -12 -5z"/>
<path d="M40234 21763 c18 -43 47 -106 65 -140 17 -34 31 -64 31 -67 0 -2 -24
-7 -54 -10 -29 -4 -75 -14 -101 -22 -27 -7 -63 -14 -81 -14 -30 0 -36 6 -76
76 -25 44 -44 69 -46 60 -2 -9 -12 -16 -23 -16 -33 0 -21 -26 34 -75 78 -71
181 -141 279 -191 l87 -44 5 33 c29 188 40 245 51 278 13 37 13 39 -5 39 -17
0 -20 7 -20 40 0 33 -3 40 -20 40 -15 0 -20 7 -20 25 0 23 -4 25 -40 25 -33 0
-40 3 -40 20 0 15 -7 20 -30 20 l-29 0 33 -77z"/>
<path d="M39930 21327 c0 -10 7 -20 15 -23 21 -8 186 -179 241 -249 25 -33 60
-84 77 -114 31 -54 31 -54 38 -26 5 15 13 71 19 124 6 53 13 111 16 129 4 26
2 32 -13 32 -41 0 -206 55 -296 99 -83 40 -97 44 -97 28z"/>
<path d="M40600 21270 c0 -20 5 -30 15 -30 10 0 15 10 15 30 0 20 -5 30 -15
30 -10 0 -15 -10 -15 -30z"/>
<path d="M40596 21128 c-2 -24 -10 -85 -16 -136 -14 -126 -61 -300 -109 -413
-47 -107 -49 -119 -21 -119 13 0 20 -7 20 -20 0 -17 7 -20 40 -20 33 0 40 -3
40 -20 0 -18 7 -20 65 -20 58 0 65 2 65 20 0 17 7 20 40 20 33 0 40 3 40 20 0
13 7 20 20 20 13 0 20 7 20 20 0 13 7 20 20 20 15 0 20 7 20 25 0 18 5 25 20
25 19 0 20 7 20 125 0 118 -1 125 -20 125 -18 0 -20 7 -20 60 0 53 -2 60 -20
60 -17 0 -20 7 -20 40 0 33 -3 40 -20 40 -15 0 -20 7 -20 25 0 18 -5 25 -20
25 -17 0 -20 7 -20 40 0 33 -3 40 -20 40 -13 0 -20 7 -20 20 0 17 -7 20 -39
20 -39 0 -40 -1 -45 -42z"/>
<path d="M33520 16600 c-8 -5 -32 -10 -52 -10 -31 0 -38 -4 -38 -20 0 -15 -7
-20 -25 -20 -41 0 -34 -51 17 -119 61 -81 193 -226 228 -251 l30 -21 0 130 0
131 -25 0 c-25 0 -25 1 -25 85 0 78 -2 85 -20 85 -11 0 -20 5 -20 10 0 13 -50
13 -70 0z"/>
<path d="M33300 16187 c0 -19 16 -31 24 -18 3 5 -1 14 -9 21 -12 10 -15 10
-15 -3z"/>
<path d="M33360 16124 c0 -3 62 -72 139 -154 103 -110 147 -166 172 -217 19
-37 35 -70 36 -72 1 -2 20 12 42 32 22 19 51 43 65 52 31 21 33 35 6 35 -17 0
-20 7 -20 40 0 33 -4 40 -19 40 -10 0 -21 8 -23 18 -3 11 -25 24 -59 34 -69
22 -196 95 -266 153 -51 41 -73 53 -73 39z"/>
<path d="M33380 15677 c0 -40 -3 -47 -20 -47 -17 0 -20 -7 -20 -40 0 -33 -3
-40 -20 -40 -15 0 -20 -7 -20 -25 0 -18 -5 -25 -20 -25 -13 0 -20 -7 -20 -20
0 -13 -7 -20 -20 -20 -13 0 -20 -7 -20 -19 0 -11 -7 -21 -15 -23 -10 -2 17
-36 80 -98 l96 -95 40 45 c55 63 75 135 61 218 -10 59 -53 167 -87 214 -14 22
-15 21 -15 -25z"/>
<path d="M33849 15594 c-40 -60 -69 -121 -95 -198 -28 -81 -29 -96 -9 -96 8 0
15 9 15 20 0 17 7 20 40 20 33 0 40 3 40 20 0 13 7 20 20 20 18 0 20 7 20 60
0 57 1 60 25 60 23 0 25 4 25 45 0 41 -2 45 -24 45 -18 0 -26 6 -28 22 -3 19
-6 17 -29 -18z"/>
<path d="M32953 15302 c-17 -2 -23 -10 -23 -28 0 -19 -5 -24 -25 -24 -22 0
-25 -4 -25 -40 0 -33 -3 -40 -20 -40 -13 0 -20 -7 -20 -20 0 -13 -7 -20 -20
-20 -17 0 -20 -7 -20 -40 0 -33 -3 -40 -20 -40 -28 0 -25 -26 9 -86 39 -68
117 -136 205 -179 77 -38 216 -80 296 -91 l50 -7 0 32 c0 24 4 31 20 31 17 0
20 7 20 45 0 41 2 45 24 45 21 0 24 5 29 48 2 26 0 69 -6 96 -5 26 -7 79 -5
117 3 60 1 69 -12 63 -8 -3 -70 -9 -138 -12 l-124 -5 -56 54 c-94 90 -115 105
-139 101z"/>
<path d="M31720 14900 c0 -11 -5 -20 -12 -20 -15 0 39 -56 255 -262 l167 -160
0 126 c0 119 -1 126 -20 126 -13 0 -20 7 -20 20 0 13 -7 20 -20 20 -15 0 -20
7 -20 25 0 18 -5 25 -20 25 -13 0 -20 7 -20 20 0 13 -7 20 -20 20 -13 0 -20 7
-20 20 0 17 -7 20 -45 20 -38 0 -45 3 -45 20 0 18 -7 20 -80 20 -73 0 -80 -2
-80 -20z"/>
<path d="M31510 14650 c0 -53 -2 -60 -20 -60 -18 0 -20 -7 -20 -74 0 -60 4
-78 18 -88 9 -7 24 -26 33 -41 8 -15 46 -61 83 -102 l67 -75 105 0 c97 0 104
1 104 20 0 17 7 20 45 20 41 0 45 2 45 24 0 18 7 26 23 29 21 4 21 4 -3 6 -18
1 -87 59 -238 201 -117 110 -219 200 -227 200 -12 0 -15 -14 -15 -60z"/>
<path d="M32630 14671 c0 -37 2 -41 25 -41 24 0 25 -2 25 -65 0 -46 4 -65 13
-65 18 1 65 29 48 30 -37 1 6 11 122 30 134 21 196 26 145 10 -46 -14 -95 -49
-139 -98 l-41 -47 26 -3 c18 -2 26 -9 26 -23 0 -18 8 -19 105 -19 98 0 105 1
105 20 0 13 7 20 20 20 13 0 20 7 20 20 0 15 7 20 25 20 18 0 25 5 25 20 0 13
7 20 20 20 15 0 20 7 20 25 0 18 5 25 20 25 13 0 20 7 20 20 0 13 7 20 20 20
11 0 20 4 20 9 0 5 -39 12 -87 16 -165 12 -338 37 -433 62 -158 42 -150 42
-150 -6z"/>
</g>
</svg>
